<?xml version="1.0" encoding="UTF-8"?>
<svg width="512" height="512" viewBox="0 0 512 512" fill="none" xmlns="http://www.w3.org/2000/svg">
  <path d="M256 64C150 64 64 150 64 256s86 192 192 192c17.7 0 32 14.3 32 32s-14.3 32-32 32C114.6 512 0 397.4 0 256S114.6 0 256 0s256 114.6 256 256c0 46.6-12.5 90.4-34.3 128-8.8 15.3-28.4 20.5-43.7 11.7-15.3-8.8-20.5-28.4-11.7-43.7C439.7 321.6 448 290 448 256c0-106-86-192-192-192z" fill="currentColor"/>
  <path d="M256 128c70.7 0 128 57.3 128 128s-57.3 128-128 128c-17.7 0-32 14.3-32 32s14.3 32 32 32c106 0 192-86 192-192S362 64 256 64 64 150 64 256c0 35.3 9.5 68.4 26.1 96.9" fill="currentColor"/>
</svg>